<svg id="Capa_1" data-name="Capa 1" xmlns="http://www.w3.org/2000/svg" viewBox="0 0 181.65 155.84"><defs><style>.cls-1{fill:#2d6799;stroke:#2d6799;stroke-miterlimit:10;}</style></defs><title>pixelheart</title><g id="_Grupo_" data-name="&lt;Grupo&gt;"><rect class="cls-1" x="155.34" y="52.12" width="25.81" height="25.8"/><rect class="cls-1" x="155.34" y="26.31" width="25.81" height="25.81"/><rect class="cls-1" x="129.53" y="77.92" width="25.81" height="25.81"/><rect class="cls-1" x="129.53" y="52.12" width="25.81" height="25.8"/><rect class="cls-1" x="129.53" y="26.31" width="25.81" height="25.81"/><rect class="cls-1" x="129.53" y="0.5" width="25.81" height="25.81"/><rect class="cls-1" x="103.73" y="103.73" width="25.8" height="25.81"/><rect class="cls-1" x="103.73" y="77.92" width="25.8" height="25.81"/><rect class="cls-1" x="103.73" y="52.12" width="25.8" height="25.8"/><rect class="cls-1" x="103.73" y="26.31" width="25.8" height="25.81"/><rect class="cls-1" x="103.73" y="0.5" width="25.8" height="25.81"/><rect class="cls-1" x="77.92" y="129.54" width="25.81" height="25.8"/><rect class="cls-1" x="77.92" y="103.73" width="25.81" height="25.81"/><rect class="cls-1" x="77.92" y="77.92" width="25.81" height="25.81"/><rect class="cls-1" x="77.92" y="52.12" width="25.81" height="25.8"/><rect class="cls-1" x="77.92" y="26.31" width="25.81" height="25.81"/><rect class="cls-1" x="52.11" y="103.73" width="25.81" height="25.81"/><rect class="cls-1" x="52.11" y="77.92" width="25.81" height="25.81"/><rect class="cls-1" x="52.11" y="52.12" width="25.81" height="25.8"/><rect class="cls-1" x="52.11" y="26.31" width="25.81" height="25.81"/><rect class="cls-1" x="52.11" y="0.5" width="25.81" height="25.81"/><rect class="cls-1" x="26.31" y="77.92" width="25.8" height="25.81"/><rect class="cls-1" x="26.31" y="52.12" width="25.8" height="25.8"/><rect class="cls-1" x="26.31" y="26.31" width="25.8" height="25.81"/><rect class="cls-1" x="26.31" y="0.5" width="25.8" height="25.81"/><rect class="cls-1" x="0.5" y="52.12" width="25.81" height="25.8"/><rect class="cls-1" x="0.5" y="26.31" width="25.81" height="25.81"/></g></svg>