<svg id="Capa_1" data-name="Capa 1" xmlns="http://www.w3.org/2000/svg" viewBox="0 0 180.65 154.84"><defs><style>.cls-1{fill:#2d6799;}</style></defs><title>pixelheart</title><g id="_Grupo_" data-name="&lt;Grupo&gt;"><rect class="cls-1" x="154.84" y="51.62" width="25.81" height="25.8"/><rect class="cls-1" x="154.84" y="25.81" width="25.81" height="25.81"/><rect class="cls-1" x="129.03" y="77.42" width="25.81" height="25.81"/><rect class="cls-1" x="129.03" y="51.62" width="25.81" height="25.8"/><rect class="cls-1" x="129.03" y="25.81" width="25.81" height="25.81"/><rect class="cls-1" x="129.03" width="25.81" height="25.81"/><rect class="cls-1" x="103.23" y="103.23" width="25.8" height="25.81"/><rect class="cls-1" x="103.23" y="77.42" width="25.8" height="25.81"/><rect class="cls-1" x="103.23" y="51.62" width="25.8" height="25.8"/><rect class="cls-1" x="103.23" y="25.81" width="25.8" height="25.81"/><rect class="cls-1" x="103.23" width="25.8" height="25.81"/><rect class="cls-1" x="77.42" y="129.04" width="25.81" height="25.8"/><rect class="cls-1" x="77.42" y="103.23" width="25.81" height="25.81"/><rect class="cls-1" x="77.42" y="77.42" width="25.81" height="25.81"/><rect class="cls-1" x="77.42" y="51.62" width="25.81" height="25.8"/><rect class="cls-1" x="77.42" y="25.81" width="25.81" height="25.81"/><rect class="cls-1" x="51.61" y="103.23" width="25.81" height="25.81"/><rect class="cls-1" x="51.61" y="77.42" width="25.81" height="25.81"/><rect class="cls-1" x="51.61" y="51.62" width="25.81" height="25.8"/><rect class="cls-1" x="51.61" y="25.81" width="25.81" height="25.81"/><rect class="cls-1" x="51.61" width="25.81" height="25.81"/><rect class="cls-1" x="25.81" y="77.42" width="25.8" height="25.81"/><rect class="cls-1" x="25.81" y="51.62" width="25.8" height="25.8"/><rect class="cls-1" x="25.81" y="25.81" width="25.8" height="25.81"/><rect class="cls-1" x="25.81" width="25.8" height="25.81"/><rect class="cls-1" y="51.62" width="25.81" height="25.8"/><rect class="cls-1" y="25.81" width="25.81" height="25.81"/></g></svg>