<svg id="Capa_1" data-name="Capa 1" xmlns="http://www.w3.org/2000/svg" viewBox="0 0 182.65 156.84"><defs><style>.cls-1{fill:#2d6799;stroke:#2d6799;stroke-miterlimit:10;stroke-width:2px;}</style></defs><title>pixelheart</title><g id="_Grupo_" data-name="&lt;Grupo&gt;"><rect class="cls-1" x="155.84" y="52.62" width="25.81" height="25.8"/><rect class="cls-1" x="155.84" y="26.81" width="25.81" height="25.81"/><rect class="cls-1" x="130.03" y="78.42" width="25.81" height="25.81"/><rect class="cls-1" x="130.03" y="52.62" width="25.81" height="25.8"/><rect class="cls-1" x="130.03" y="26.81" width="25.81" height="25.81"/><rect class="cls-1" x="130.03" y="1" width="25.81" height="25.81"/><rect class="cls-1" x="104.23" y="104.23" width="25.8" height="25.81"/><rect class="cls-1" x="104.23" y="78.42" width="25.8" height="25.81"/><rect class="cls-1" x="104.23" y="52.62" width="25.8" height="25.8"/><rect class="cls-1" x="104.23" y="26.81" width="25.8" height="25.81"/><rect class="cls-1" x="104.23" y="1" width="25.8" height="25.81"/><rect class="cls-1" x="78.42" y="130.04" width="25.81" height="25.8"/><rect class="cls-1" x="78.42" y="104.23" width="25.81" height="25.81"/><rect class="cls-1" x="78.42" y="78.42" width="25.81" height="25.81"/><rect class="cls-1" x="78.42" y="52.62" width="25.81" height="25.8"/><rect class="cls-1" x="78.42" y="26.81" width="25.81" height="25.81"/><rect class="cls-1" x="52.61" y="104.23" width="25.81" height="25.81"/><rect class="cls-1" x="52.61" y="78.42" width="25.81" height="25.81"/><rect class="cls-1" x="52.61" y="52.62" width="25.81" height="25.8"/><rect class="cls-1" x="52.61" y="26.81" width="25.81" height="25.81"/><rect class="cls-1" x="52.61" y="1" width="25.81" height="25.81"/><rect class="cls-1" x="26.81" y="78.42" width="25.8" height="25.81"/><rect class="cls-1" x="26.81" y="52.62" width="25.8" height="25.8"/><rect class="cls-1" x="26.81" y="26.81" width="25.8" height="25.81"/><rect class="cls-1" x="26.81" y="1" width="25.8" height="25.81"/><rect class="cls-1" x="1" y="52.62" width="25.81" height="25.8"/><rect class="cls-1" x="1" y="26.81" width="25.81" height="25.81"/></g></svg>